name Walk10.mot
datacolumns 19
datarows 15
range 1.69300000 1.70700000
endheader

                time	   L_ground_force_vx	   L_ground_force_vy	   L_ground_force_vz	   L_ground_force_px	   L_ground_force_py	   L_ground_force_pz	   R_ground_force_vx	   R_ground_force_vy	   R_ground_force_vz	   R_ground_force_px	   R_ground_force_py	   R_ground_force_pz	   L_ground_torque_x	   L_ground_torque_y	   L_ground_torque_z	   R_ground_torque_x	   R_ground_torque_y	   R_ground_torque_z	
          1.69300000	          0.59202157	        700.79454414	         39.76642080	         -0.14747113	          0.00000000	         -0.05732096	          0.00000000	          0.00000000	          0.00000000	          0.00000000	          0.00000000	          0.00000000	          0.00000000	          1.60603187	          0.00000000	          0.00000000	          0.00000000	          0.00000000	
          1.69400000	          1.05119526	        703.20329370	         39.74936318	         -0.14707026	          0.00000000	         -0.05724696	          0.00000000	          0.00000000	          0.00000000	          0.00000000	          0.00000000	          0.00000000	          0.00000000	          1.62441451	          0.00000000	          0.00000000	          0.00000000	          0.00000000	
          1.69500000	          1.50433247	        705.62732255	         39.73685289	         -0.14670769	          0.00000000	         -0.05721382	          0.00000000	          0.00000000	          0.00000000	          0.00000000	          0.00000000	          0.00000000	          0.00000000	          1.64213649	          0.00000000	          0.00000000	          0.00000000	          0.00000000	
          1.69600000	          1.96451027	        708.01135362	         39.72417995	         -0.14638411	          0.00000000	         -0.05722080	          0.00000000	          0.00000000	          0.00000000	          0.00000000	          0.00000000	          0.00000000	          0.00000000	          1.64919139	          0.00000000	          0.00000000	          0.00000000	          0.00000000	
          1.69700000	          2.46441273	        710.34519508	         39.70425799	         -0.14609069	          0.00000000	         -0.05725585	          0.00000000	          0.00000000	          0.00000000	          0.00000000	          0.00000000	          0.00000000	          0.00000000	          1.64078322	          0.00000000	          0.00000000	          0.00000000	          0.00000000	
          1.69800000	          3.03893289	        712.64506032	         39.68035143	         -0.14580807	          0.00000000	         -0.05730080	          0.00000000	          0.00000000	          0.00000000	          0.00000000	          0.00000000	          0.00000000	          0.00000000	          1.62417629	          0.00000000	          0.00000000	          0.00000000	          0.00000000	
          1.69900000	          3.70465388	        714.93182474	         39.66930129	         -0.14551461	          0.00000000	         -0.05733218	          0.00000000	          0.00000000	          0.00000000	          0.00000000	          0.00000000	          0.00000000	          0.00000000	          1.61554996	          0.00000000	          0.00000000	          0.00000000	          0.00000000	
          1.70000000	          4.45135934	        717.23141930	         39.67779401	         -0.14520255	          0.00000000	         -0.05733589	          0.00000000	          0.00000000	          0.00000000	          0.00000000	          0.00000000	          0.00000000	          0.00000000	          1.62641947	          0.00000000	          0.00000000	          0.00000000	          0.00000000	
          1.70100000	          5.24521011	        719.56924482	         39.68578002	         -0.14488736	          0.00000000	         -0.05732371	          0.00000000	          0.00000000	          0.00000000	          0.00000000	          0.00000000	          0.00000000	          0.00000000	          1.65213676	          0.00000000	          0.00000000	          0.00000000	          0.00000000	
          1.70200000	          6.04193559	        721.96150116	         39.67500054	         -0.14459735	          0.00000000	         -0.05731580	          0.00000000	          0.00000000	          0.00000000	          0.00000000	          0.00000000	          0.00000000	          0.00000000	          1.67618815	          0.00000000	          0.00000000	          0.00000000	          0.00000000	
          1.70300000	          6.80487083	        724.40407065	         39.65834291	         -0.14434591	          0.00000000	         -0.05731095	          0.00000000	          0.00000000	          0.00000000	          0.00000000	          0.00000000	          0.00000000	          0.00000000	          1.68722046	          0.00000000	          0.00000000	          0.00000000	          0.00000000	
          1.70400000	          7.51954916	        726.86579180	         39.65548834	         -0.14411497	          0.00000000	         -0.05729440	          0.00000000	          0.00000000	          0.00000000	          0.00000000	          0.00000000	          0.00000000	          0.00000000	          1.68829017	          0.00000000	          0.00000000	          0.00000000	          0.00000000	
          1.70500000	          8.19506934	        729.30923221	         39.65778418	         -0.14387170	          0.00000000	         -0.05726537	          0.00000000	          0.00000000	          0.00000000	          0.00000000	          0.00000000	          0.00000000	          0.00000000	          1.68802217	          0.00000000	          0.00000000	          0.00000000	          0.00000000	
          1.70600000	          8.85602806	        731.71909645	         39.64162017	         -0.14359724	          0.00000000	         -0.05724438	          0.00000000	          0.00000000	          0.00000000	          0.00000000	          0.00000000	          0.00000000	          0.00000000	          1.69096586	          0.00000000	          0.00000000	          0.00000000	          0.00000000	
          1.70700000	          9.53545836	        734.10750444	         39.60105306	         -0.14329718	          0.00000000	         -0.05725247	          0.00000000	          0.00000000	          0.00000000	          0.00000000	          0.00000000	          0.00000000	          0.00000000	          1.69884436	          0.00000000	          0.00000000	          0.00000000	          0.00000000	
